<mxfile host="app.diagrams.net" modified="2024-02-26T22:18:09.137Z" agent="Mozilla/5.0 (Macintosh; Intel Mac OS X 10_15_7) AppleWebKit/605.1.15 (KHTML, like Gecko) Version/17.2.1 Safari/605.1.15" version="23.1.7" etag="5Ndzg3_6_BV_Fh-oJDPC" type="github">
  <diagram name="Page-1" id="fwyto86wjsTMcoRMjW4s">
    <mxGraphModel>
      <root>
        <mxCell id="0" />
        <mxCell id="1" parent="0" />
      </root>
    </mxGraphModel>
  </diagram>
</mxfile>
